<svg width="243" height="96" viewBox="0 0 243 96" fill="none" xmlns="http://www.w3.org/2000/svg">
<g opacity="0.99">
<path d="M28.79 54.37C26.46 59.53 20.6 59.61 17.95 54.65C16.75 54.63 9.19998 54.49 8.96998 53.63C8.48998 51.87 12.56 52.14 12.9 51.66C13.33 49.03 12.25 45.86 14.5 43.84C16.49 42.05 21.45 42.16 24.05 41.55C25.92 39.08 27.72 35.02 30.54 33.51C34.06 31.62 44.96 32.62 49.21 33.07C52.86 33.46 54.98 32.8 57.53 36.05C58.5 37.29 59.46 39.98 60.19 40.79C61.1 41.78 62.6 41.34 63.58 43.46C64.67 45.82 63.6 50.14 64.41 51.45C64.54 51.66 69.83 52.6 66.77 53.86C64.07 54.97 58.97 53.99 55.98 54.32C54.53 58.07 49.66 59.57 46.67 56.87C45.62 55.92 45.25 54.33 44.9 54.33M61.99 51.92V46.41C61.99 46.18 61.5 44.66 61.31 44.4C60.72 43.56 59.42 43.65 58.61 42.79C57.07 41.17 56.11 37.1 53.84 35.99C52.39 35.29 47.82 35.11 45.98 34.97C42.69 34.72 38.74 34.45 35.48 34.69C31.95 34.95 30.81 36.04 28.79 38.76C28.55 39.09 26.84 41.52 27.02 41.69C32.9 40.6 39.12 41.2 45.05 41.69V42.49C42.06 42.51 39.02 42.55 36.04 42.76C31.04 43.12 25.11 43.6 20.19 44.4C18.86 44.62 15.45 45.12 15.45 46.92V52.3C15.45 52.98 18.03 52.52 18.12 52.41C18.19 52.33 18.12 51.48 18.27 51.08C20.1 45.87 27.72 46.58 28.8 51.91H44.39C45.39 51.91 45.55 50.53 46.17 49.65C48.47 46.43 53.21 46.93 55.23 50.18C55.58 50.74 55.72 51.89 55.81 51.89H62L61.99 51.92ZM22.9 49.55C19.09 49.98 18.99 55.72 22.85 56.2C28.19 56.87 27.68 49.01 22.9 49.55ZM49.81 49.55C45.39 50.19 46.82 57.38 51.56 56.15C55.15 55.22 54.36 48.89 49.81 49.55Z" fill="#1B8AEB"/>
<path d="M68.78 28.98C69.87 30.13 73.28 30.12 73.31 32.68C73.33 34.65 70.94 42.67 70.19 44.92C70.01 45.46 69.59 47.21 69.09 47.32C68.23 47.26 67.59 46.31 67.43 45.53C66.81 42.5 69.71 36.84 69.75 33.54C69.51 32.66 66.04 31.3 65.51 30.5C64.74 29.35 65.21 26.63 64.4 25.96L39.17 17.53H38.51L12.71 26.2C12.22 27.4 12.53 28.98 11.79 30.12C11.05 31.26 7.81999 32.5 7.61999 33.49C7.00999 36.55 10.58 43.01 9.64999 46.02C9.39999 46.83 8.07999 47.6 7.58999 46.92C7.17999 46.35 5.76999 40.81 5.48999 39.66C5.07999 38.01 3.91999 34.09 3.86999 32.65C3.80999 30.67 7.83999 29.86 8.55999 28.5C9.09999 27.47 8.89999 24.31 9.69999 23.65C9.93999 23.45 11.12 23 11.52 22.85C20.45 19.49 30.21 17.09 39.28 14L66.58 23.25C68.71 23.83 67.95 28.09 68.79 28.98H68.78Z" fill="#1B8AEB"/>
<path d="M62.24 55.96C63.07 56.54 61.7 59.54 61.36 60.3C57.75 68.5 48.83 78.31 40.37 81.55C38.42 82.3 38.33 82.01 36.51 81.28C28.88 78.21 20.97 70.52 17 63.39C16.43 62.36 14.09 57.72 14.17 56.88C14.31 55.54 16.13 56.5 16.78 57.14C18.15 58.48 20.03 62.58 21.5 64.53C24.62 68.65 29.21 73.07 33.58 75.86C34.52 76.46 37.83 78.45 38.75 78.47C39.79 78.5 43.97 75.65 45 74.88C49.43 71.62 53.72 66.98 56.71 62.37C57.72 60.81 59.39 56.9 60.83 56.26C61.11 56.14 62.04 55.8 62.24 55.94V55.96Z" fill="#1887E9"/>
<path d="M38.54 62.18C38.74 62.49 38.56 67.57 39.39 68.59L40.17 66.55C40.39 65.72 39.78 62.09 40.61 61.87C42.34 61.42 41.82 66.7 44.93 66.96C45.74 67.03 46.85 66.31 46.93 67.38C47.04 68.75 44.9 69.27 43.84 69.12C43.32 69.05 42.28 68.29 41.83 68.62C41.63 68.77 40.65 72.75 40 72.91C38.15 73.36 37.4 69.73 37.23 68.33C35.07 68.86 33.08 70.04 31.33 67.9C31.59 66.62 32.9 67.12 33.81 66.93C36.89 66.27 35.99 62.01 37.63 61.9C37.79 61.89 38.49 62.11 38.54 62.19V62.18Z" fill="#1887E9"/>
<path d="M85.6439 46.93L79.0267 27.0511H82.8822L87.1068 40.3128L91.3314 27.0511H95.1869L88.5697 46.93H85.6439ZM97.6478 46.93V27.0511H101.394V46.93H97.6478ZM99.0013 46.93V43.3206H110.964V46.93H99.0013ZM99.0013 38.8636V35.2542H109.46V38.8636H99.0013ZM99.0013 30.6605V27.0511H110.964V30.6605H99.0013ZM125.265 46.93V27.0511H129.011V46.93H125.265ZM114.382 46.93V27.0511H118.128V46.93H114.382ZM116.119 38.8773V35.2679H127.699V38.8773H116.119ZM136.995 27.0511V46.93H133.113V27.0511H136.995ZM147.878 47.1351C146.356 47.1351 145.057 46.848 143.982 46.2737C142.915 45.6904 142.1 44.8473 141.535 43.7444C140.969 42.6325 140.687 41.2926 140.687 39.7249V34.2698C140.687 32.693 140.969 31.3532 141.535 30.2503C142.1 29.1474 142.915 28.3043 143.982 27.721C145.057 27.1377 146.356 26.846 147.878 26.846C149.136 26.846 150.253 27.1149 151.228 27.6526C152.212 28.1904 153.023 28.9697 153.661 29.9905C154.309 31.0114 154.755 32.251 155.001 33.7093H151.119C150.973 33.0439 150.745 32.4834 150.435 32.0276C150.134 31.5628 149.765 31.2073 149.327 30.9612C148.899 30.7151 148.416 30.5921 147.878 30.5921C146.83 30.5921 146.014 30.9157 145.431 31.5628C144.857 32.2008 144.57 33.1032 144.57 34.2698V39.7249C144.57 40.8916 144.857 41.7939 145.431 42.4319C146.014 43.07 146.83 43.389 147.878 43.389C148.699 43.389 149.391 43.1201 149.956 42.5823C150.522 42.0355 150.909 41.2653 151.119 40.2718H155.001C154.746 41.721 154.295 42.9606 153.648 43.9905C153.01 45.0114 152.203 45.7907 151.228 46.3284C150.253 46.8662 149.136 47.1351 147.878 47.1351ZM158.16 46.93V27.0511H161.906V46.93H158.16ZM159.827 46.93V43.3206H171.476V46.93H159.827ZM174.21 46.93V27.0511H177.956V46.93H174.21ZM175.564 46.93V43.3206H187.527V46.93H175.564ZM175.564 38.8636V35.2542H186.023V38.8636H175.564ZM175.564 30.6605V27.0511H187.527V30.6605H175.564Z" fill="#FCFCFC"/>
<path d="M194.554 27.0511V46.93H190.671V27.0511H194.554ZM200.542 46.93V43.3206H205.314C206.544 43.3206 207.497 43.0244 208.171 42.4319C208.846 41.8304 209.183 40.9918 209.183 39.9163V34.0648C209.183 32.9801 208.846 32.1416 208.171 31.5491C207.497 30.9567 206.544 30.6605 205.314 30.6605H200.542V27.0511H205.232C207.729 27.0511 209.657 27.6754 211.015 28.9241C212.382 30.1637 213.066 31.9137 213.066 34.1741V39.8069C213.066 41.2197 212.774 42.4638 212.191 43.5394C211.607 44.6058 210.732 45.4398 209.566 46.0413C208.408 46.6338 206.959 46.93 205.218 46.93H200.542ZM198.656 46.93V27.0511H202.402V46.93H198.656ZM222.732 47.1351C221.784 47.1351 220.854 47.0394 219.943 46.848C219.04 46.6566 218.193 46.3786 217.4 46.014C216.607 45.6403 215.891 45.1937 215.253 44.6741L216.99 41.5843C217.755 42.2132 218.639 42.7008 219.642 43.0472C220.645 43.3844 221.675 43.553 222.732 43.553C223.953 43.553 224.901 43.348 225.576 42.9378C226.25 42.5185 226.587 41.9306 226.587 41.1741V41.1605C226.587 40.5862 226.419 40.1487 226.081 39.848C225.744 39.5381 225.298 39.3102 224.742 39.1644C224.195 39.0185 223.598 38.8955 222.951 38.7952C222.176 38.6767 221.392 38.5309 220.599 38.3577C219.806 38.1754 219.077 37.8929 218.411 37.5101C217.746 37.1181 217.208 36.5622 216.798 35.8421C216.397 35.122 216.197 34.1605 216.197 32.9573V32.9437C216.197 31.0023 216.835 29.5029 218.111 28.4456C219.387 27.3792 221.191 26.846 223.525 26.846C224.6 26.846 225.694 27.0283 226.806 27.3929C227.918 27.7484 228.952 28.2588 229.91 28.9241L228.324 32.096C227.558 31.5582 226.756 31.1481 225.917 30.8655C225.088 30.5739 224.29 30.428 223.525 30.428C222.376 30.428 221.488 30.6194 220.859 31.0023C220.23 31.376 219.915 31.9046 219.915 32.5882V32.6019C219.915 33.2399 220.102 33.723 220.476 34.0511C220.85 34.3792 221.337 34.6253 221.939 34.7894C222.54 34.9443 223.188 35.0901 223.88 35.2269C224.646 35.3727 225.407 35.555 226.163 35.7737C226.92 35.9834 227.613 36.2887 228.242 36.6898C228.87 37.0908 229.372 37.6422 229.745 38.3441C230.119 39.0459 230.306 39.9573 230.306 41.0784V41.1058C230.306 43.0198 229.645 44.5055 228.324 45.5628C227.002 46.611 225.138 47.1351 222.732 47.1351Z" fill="#1B8AEB"/>
<path d="M87.8744 57.3805V65.9H86.2103V57.3805H87.8744ZM89.515 65.9V59.818H91.1205V65.9H89.515ZM93.0306 65.9V62.2144C93.0306 61.9137 92.9447 61.6832 92.7728 61.523C92.6048 61.359 92.3646 61.2769 92.0521 61.2769C91.7552 61.2769 91.5248 61.3609 91.3607 61.5289C91.2005 61.693 91.1205 61.9254 91.1205 62.2262L90.9974 60.8785C91.1732 60.5113 91.3861 60.2281 91.6361 60.0289C91.89 59.8297 92.2181 59.7301 92.6205 59.7301C93.2611 59.7301 93.7572 59.9469 94.1087 60.3805C94.4603 60.8102 94.6361 61.4195 94.6361 62.2086V65.9H93.0306ZM97.9173 65.9293C97.3744 65.9293 96.9818 65.7906 96.7396 65.5133C96.4974 65.2359 96.3763 64.8375 96.3763 64.318V58.0484H97.9818V63.9195C97.9818 64.0641 98.0111 64.1773 98.0697 64.2594C98.1283 64.3414 98.2142 64.3824 98.3275 64.3824H98.7259V65.9293H97.9173ZM95.7494 61.1891V59.818H98.7259V61.1891H95.7494ZM100.132 65.9V59.818H101.855V65.9H100.132ZM103.554 61.5113C103.48 61.4332 103.384 61.3746 103.267 61.3355C103.154 61.2965 103.023 61.2769 102.874 61.2769C102.55 61.2769 102.298 61.3824 102.119 61.5934C101.943 61.8004 101.855 62.0894 101.855 62.4605L101.732 60.8785C101.9 60.5191 102.117 60.2379 102.382 60.0348C102.652 59.8316 102.947 59.7301 103.267 59.7301C103.521 59.7301 103.749 59.7711 103.952 59.8531C104.16 59.9312 104.339 60.0484 104.492 60.2047L103.554 61.5113ZM108.745 65.9V59.818H110.345V65.9H108.745ZM106.859 59.818V63.5152C106.859 63.8082 106.941 64.0367 107.105 64.2008C107.273 64.3609 107.507 64.441 107.808 64.441C108.109 64.441 108.339 64.359 108.499 64.1949C108.663 64.0269 108.745 63.7887 108.745 63.4801L108.827 64.8102C108.726 65.1109 108.546 65.3824 108.288 65.6246C108.035 65.8668 107.704 65.9879 107.298 65.9879C106.646 65.9879 106.142 65.7769 105.786 65.3551C105.431 64.9332 105.253 64.3394 105.253 63.5738V59.818H106.859ZM114.259 65.9879C113.712 65.9879 113.191 65.9156 112.695 65.7711C112.202 65.6227 111.783 65.4176 111.435 65.1559L112.425 63.9195C112.718 64.107 113.025 64.2516 113.345 64.3531C113.665 64.4547 113.97 64.5055 114.259 64.5055C114.634 64.5055 114.925 64.4644 115.132 64.3824C115.339 64.2965 115.443 64.1793 115.443 64.0309C115.443 63.8512 115.37 63.7281 115.226 63.6617C115.085 63.5953 114.9 63.5523 114.669 63.5328C114.439 63.5094 114.195 63.4801 113.937 63.4449C113.675 63.4098 113.415 63.3687 113.158 63.3219C112.904 63.2711 112.671 63.191 112.46 63.0816C112.249 62.9684 112.081 62.8004 111.956 62.5777C111.831 62.3512 111.769 62.0445 111.769 61.6578C111.769 61.0445 111.986 60.5699 112.419 60.234C112.853 59.898 113.466 59.7301 114.259 59.7301C114.724 59.7301 115.181 59.7984 115.63 59.9352C116.083 60.0719 116.488 60.2652 116.843 60.5152L115.888 61.6812C115.622 61.5328 115.345 61.4176 115.056 61.3355C114.767 61.2535 114.49 61.2125 114.224 61.2125C113.9 61.2125 113.648 61.2496 113.468 61.3238C113.288 61.3941 113.199 61.4977 113.199 61.6344C113.199 61.7516 113.261 61.8394 113.386 61.898C113.511 61.9566 113.675 61.9996 113.878 62.0269C114.081 62.0504 114.3 62.0758 114.535 62.1031C114.804 62.1344 115.076 62.1734 115.349 62.2203C115.622 62.2633 115.872 62.3434 116.099 62.4605C116.329 62.5777 116.515 62.7555 116.656 62.9937C116.796 63.232 116.867 63.5602 116.867 63.9781C116.867 64.6148 116.638 65.109 116.181 65.4605C115.728 65.8121 115.087 65.9879 114.259 65.9879ZM118.068 58.9859V57.3805H119.673V58.9859H118.068ZM118.068 65.9V59.818H119.673V65.9H118.068ZM123.617 65.9879C122.781 65.9879 122.134 65.7574 121.677 65.2965C121.22 64.8316 120.992 64.1793 120.992 63.3394V62.3492C120.992 61.5172 121.22 60.8727 121.677 60.4156C122.134 59.9586 122.781 59.7301 123.617 59.7301C124.452 59.7301 125.099 59.9586 125.556 60.4156C126.013 60.8727 126.242 61.5172 126.242 62.3492V63.357C126.242 64.193 126.013 64.8414 125.556 65.3023C125.099 65.7594 124.452 65.9879 123.617 65.9879ZM123.611 64.441C123.935 64.441 124.187 64.3473 124.367 64.1598C124.546 63.9684 124.636 63.7008 124.636 63.357V62.3492C124.636 62.0094 124.546 61.7457 124.367 61.5582C124.187 61.3707 123.935 61.2769 123.611 61.2769C123.29 61.2769 123.04 61.3707 122.861 61.5582C122.685 61.7457 122.597 62.0094 122.597 62.3492V63.357C122.597 63.7008 122.685 63.9684 122.861 64.1598C123.04 64.3473 123.29 64.441 123.611 64.441ZM127.706 65.9V59.818H129.312V65.9H127.706ZM131.222 65.9V62.2144C131.222 61.9137 131.136 61.6832 130.964 61.523C130.796 61.359 130.556 61.2769 130.244 61.2769C129.947 61.2769 129.716 61.3609 129.552 61.5289C129.392 61.693 129.312 61.9254 129.312 62.2262L129.189 60.8785C129.365 60.5113 129.577 60.2281 129.827 60.0289C130.081 59.8297 130.41 59.7301 130.812 59.7301C131.452 59.7301 131.949 59.9469 132.3 60.3805C132.652 60.8102 132.827 61.4195 132.827 62.2086V65.9H131.222ZM138.558 65.9V64.3531H140.603C141.13 64.3531 141.538 64.2262 141.827 63.9723C142.117 63.7144 142.261 63.3551 142.261 62.8941V60.3863C142.261 59.9215 142.117 59.5621 141.827 59.3082C141.538 59.0543 141.13 58.9273 140.603 58.9273H138.558V57.3805H140.568C141.638 57.3805 142.464 57.648 143.046 58.1832C143.632 58.7144 143.925 59.4644 143.925 60.4332V62.8473C143.925 63.4527 143.8 63.9859 143.55 64.4469C143.3 64.9039 142.925 65.2613 142.425 65.5191C141.929 65.773 141.308 65.9 140.562 65.9H138.558ZM137.749 65.9V57.3805H139.355V65.9H137.749ZM148.115 65.9879C147.232 65.9879 146.546 65.7516 146.058 65.2789C145.574 64.8023 145.331 64.1305 145.331 63.2633V62.5777C145.331 61.6715 145.564 60.9703 146.029 60.4742C146.497 59.9781 147.158 59.7301 148.009 59.7301C148.814 59.7301 149.435 60.0269 149.872 60.6207C150.314 61.2105 150.535 62.0426 150.535 63.1168V63.5152H146.374V62.4312H149.07L149.052 62.2906C149.009 61.943 148.9 61.6734 148.724 61.482C148.548 61.2867 148.31 61.1891 148.009 61.1891C147.622 61.1891 147.322 61.3043 147.107 61.5348C146.896 61.7652 146.79 62.0914 146.79 62.5133V63.2867C146.79 63.7008 146.906 64.0211 147.136 64.2477C147.37 64.4742 147.697 64.5875 148.115 64.5875C148.329 64.5875 148.542 64.5504 148.753 64.4762C148.964 64.398 149.156 64.2887 149.327 64.148L150.376 65.0797C150.06 65.3687 149.704 65.5934 149.31 65.7535C148.915 65.9098 148.517 65.9879 148.115 65.9879ZM153.64 65.9293C153.097 65.9293 152.704 65.7906 152.462 65.5133C152.22 65.2359 152.099 64.8375 152.099 64.318V58.0484H153.704V63.9195C153.704 64.0641 153.734 64.1773 153.792 64.2594C153.851 64.3414 153.937 64.3824 154.05 64.3824H154.449V65.9293H153.64ZM151.472 61.1891V59.818H154.449V61.1891H151.472ZM158.462 65.9879C157.579 65.9879 156.894 65.7516 156.406 65.2789C155.921 64.8023 155.679 64.1305 155.679 63.2633V62.5777C155.679 61.6715 155.911 60.9703 156.376 60.4742C156.845 59.9781 157.505 59.7301 158.357 59.7301C159.161 59.7301 159.783 60.0269 160.22 60.6207C160.661 61.2105 160.882 62.0426 160.882 63.1168V63.5152H156.722V62.4312H159.417L159.4 62.2906C159.357 61.943 159.247 61.6734 159.072 61.482C158.896 61.2867 158.658 61.1891 158.357 61.1891C157.97 61.1891 157.669 61.3043 157.454 61.5348C157.244 61.7652 157.138 62.0914 157.138 62.5133V63.2867C157.138 63.7008 157.253 64.0211 157.484 64.2477C157.718 64.4742 158.044 64.5875 158.462 64.5875C158.677 64.5875 158.89 64.5504 159.101 64.4762C159.312 64.398 159.503 64.2887 159.675 64.148L160.724 65.0797C160.408 65.3687 160.052 65.5934 159.658 65.7535C159.263 65.9098 158.865 65.9879 158.462 65.9879ZM164.861 65.9879C163.99 65.9879 163.314 65.7418 162.833 65.2496C162.353 64.7574 162.113 64.0641 162.113 63.1695V62.5191C162.113 61.6324 162.353 60.9469 162.833 60.4625C163.314 59.9742 163.99 59.7301 164.861 59.7301C165.361 59.7301 165.812 59.8141 166.214 59.982C166.62 60.15 166.943 60.3902 167.181 60.7027L166.144 61.7105C165.999 61.5738 165.826 61.4684 165.622 61.3941C165.423 61.316 165.214 61.2769 164.995 61.2769C164.589 61.2769 164.275 61.3863 164.052 61.6051C163.829 61.8199 163.718 62.1246 163.718 62.5191V63.1695C163.718 63.5758 163.829 63.8902 164.052 64.1129C164.275 64.3316 164.589 64.441 164.995 64.441C165.214 64.441 165.423 64.4 165.622 64.318C165.826 64.2359 165.999 64.1187 166.144 63.9664L167.181 65.0328C166.943 65.3375 166.62 65.5738 166.214 65.7418C165.812 65.9059 165.361 65.9879 164.861 65.9879ZM169.964 65.9293C169.421 65.9293 169.029 65.7906 168.786 65.5133C168.544 65.2359 168.423 64.8375 168.423 64.318V58.0484H170.029V63.9195C170.029 64.0641 170.058 64.1773 170.117 64.2594C170.175 64.3414 170.261 64.3824 170.374 64.3824H170.773V65.9293H169.964ZM167.796 61.1891V59.818H170.773V61.1891H167.796ZM172.091 58.9859V57.3805H173.697V58.9859H172.091ZM172.091 65.9V59.818H173.697V65.9H172.091ZM177.64 65.9879C176.804 65.9879 176.158 65.7574 175.701 65.2965C175.244 64.8316 175.015 64.1793 175.015 63.3394V62.3492C175.015 61.5172 175.244 60.8727 175.701 60.4156C176.158 59.9586 176.804 59.7301 177.64 59.7301C178.476 59.7301 179.122 59.9586 179.579 60.4156C180.036 60.8727 180.265 61.5172 180.265 62.3492V63.357C180.265 64.193 180.036 64.8414 179.579 65.3023C179.122 65.7594 178.476 65.9879 177.64 65.9879ZM177.634 64.441C177.958 64.441 178.21 64.3473 178.39 64.1598C178.57 63.9684 178.66 63.7008 178.66 63.357V62.3492C178.66 62.0094 178.57 61.7457 178.39 61.5582C178.21 61.3707 177.958 61.2769 177.634 61.2769C177.314 61.2769 177.064 61.3707 176.884 61.5582C176.708 61.7457 176.62 62.0094 176.62 62.3492V63.357C176.62 63.7008 176.708 63.9684 176.884 64.1598C177.064 64.3473 177.314 64.441 177.634 64.441ZM181.73 65.9V59.818H183.335V65.9H181.73ZM185.245 65.9V62.2144C185.245 61.9137 185.16 61.6832 184.988 61.523C184.82 61.359 184.579 61.2769 184.267 61.2769C183.97 61.2769 183.74 61.3609 183.576 61.5289C183.415 61.693 183.335 61.9254 183.335 62.2262L183.212 60.8785C183.388 60.5113 183.601 60.2281 183.851 60.0289C184.105 59.8297 184.433 59.7301 184.835 59.7301C185.476 59.7301 185.972 59.9469 186.324 60.3805C186.675 60.8102 186.851 61.4195 186.851 62.2086V65.9H185.245ZM194.451 65.9879C194.044 65.9879 193.646 65.9469 193.255 65.8648C192.869 65.7828 192.505 65.6637 192.165 65.5074C191.826 65.3473 191.519 65.1559 191.245 64.9332L191.99 63.609C192.318 63.8785 192.697 64.0875 193.126 64.2359C193.556 64.3805 193.997 64.4527 194.451 64.4527C194.974 64.4527 195.38 64.3648 195.669 64.1891C195.958 64.0094 196.103 63.7574 196.103 63.4332V63.4273C196.103 63.1812 196.031 62.9937 195.886 62.8648C195.742 62.732 195.55 62.6344 195.312 62.5719C195.077 62.5094 194.822 62.4566 194.544 62.4137C194.212 62.3629 193.876 62.3004 193.536 62.2262C193.197 62.148 192.884 62.0269 192.599 61.8629C192.314 61.6949 192.083 61.4566 191.908 61.148C191.736 60.8394 191.65 60.4273 191.65 59.9117V59.9059C191.65 59.0738 191.923 58.4312 192.47 57.9781C193.017 57.5211 193.79 57.2926 194.79 57.2926C195.251 57.2926 195.72 57.3707 196.197 57.5269C196.673 57.6793 197.117 57.898 197.527 58.1832L196.847 59.5426C196.519 59.3121 196.175 59.1363 195.816 59.0152C195.46 58.8902 195.119 58.8277 194.79 58.8277C194.298 58.8277 193.917 58.9098 193.648 59.0738C193.378 59.234 193.244 59.4605 193.244 59.7535V59.7594C193.244 60.0328 193.324 60.2398 193.484 60.3805C193.644 60.5211 193.853 60.6266 194.111 60.6969C194.369 60.7633 194.646 60.8258 194.943 60.8844C195.271 60.9469 195.597 61.025 195.921 61.1187C196.245 61.2086 196.542 61.3394 196.812 61.5113C197.081 61.6832 197.296 61.9195 197.456 62.2203C197.617 62.5211 197.697 62.9117 197.697 63.3922V63.4039C197.697 64.2242 197.413 64.8609 196.847 65.3141C196.281 65.7633 195.482 65.9879 194.451 65.9879ZM202.513 59.818H204.025L201.318 67.3238C201.165 67.7418 200.954 68.0309 200.685 68.191C200.415 68.3551 200.042 68.4371 199.566 68.4371H199.208V66.8785H199.566C199.734 66.8785 199.874 66.8414 199.988 66.7672C200.105 66.693 200.195 66.568 200.257 66.3922L202.513 59.818ZM200.949 66.398L198.406 59.818H199.917L201.962 65.1031L200.949 66.398ZM207.177 65.9879C206.63 65.9879 206.109 65.9156 205.613 65.7711C205.12 65.6227 204.701 65.4176 204.353 65.1559L205.343 63.9195C205.636 64.107 205.943 64.2516 206.263 64.3531C206.583 64.4547 206.888 64.5055 207.177 64.5055C207.552 64.5055 207.843 64.4644 208.05 64.3824C208.257 64.2965 208.361 64.1793 208.361 64.0309C208.361 63.8512 208.288 63.7281 208.144 63.6617C208.003 63.5953 207.818 63.5523 207.587 63.5328C207.357 63.5094 207.113 63.4801 206.855 63.4449C206.593 63.4098 206.333 63.3687 206.076 63.3219C205.822 63.2711 205.589 63.191 205.378 63.0816C205.167 62.9684 204.999 62.8004 204.874 62.5777C204.749 62.3512 204.687 62.0445 204.687 61.6578C204.687 61.0445 204.904 60.5699 205.337 60.234C205.771 59.898 206.384 59.7301 207.177 59.7301C207.642 59.7301 208.099 59.7984 208.548 59.9352C209.001 60.0719 209.406 60.2652 209.761 60.5152L208.806 61.6812C208.54 61.5328 208.263 61.4176 207.974 61.3355C207.685 61.2535 207.408 61.2125 207.142 61.2125C206.818 61.2125 206.566 61.2496 206.386 61.3238C206.206 61.3941 206.117 61.4977 206.117 61.6344C206.117 61.7516 206.179 61.8394 206.304 61.898C206.429 61.9566 206.593 61.9996 206.796 62.0269C206.999 62.0504 207.218 62.0758 207.452 62.1031C207.722 62.1344 207.994 62.1734 208.267 62.2203C208.54 62.2633 208.79 62.3434 209.017 62.4605C209.247 62.5777 209.433 62.7555 209.574 62.9937C209.714 63.232 209.785 63.5602 209.785 63.9781C209.785 64.6148 209.556 65.109 209.099 65.4605C208.646 65.8121 208.005 65.9879 207.177 65.9879ZM212.773 65.9293C212.23 65.9293 211.837 65.7906 211.595 65.5133C211.353 65.2359 211.232 64.8375 211.232 64.318V58.0484H212.837V63.9195C212.837 64.0641 212.867 64.1773 212.925 64.2594C212.984 64.3414 213.07 64.3824 213.183 64.3824H213.581V65.9293H212.773ZM210.605 61.1891V59.818H213.581V61.1891H210.605ZM217.595 65.9879C216.712 65.9879 216.027 65.7516 215.538 65.2789C215.054 64.8023 214.812 64.1305 214.812 63.2633V62.5777C214.812 61.6715 215.044 60.9703 215.509 60.4742C215.978 59.9781 216.638 59.7301 217.49 59.7301C218.294 59.7301 218.915 60.0269 219.353 60.6207C219.794 61.2105 220.015 62.0426 220.015 63.1168V63.5152H215.855V62.4312H218.55L218.533 62.2906C218.49 61.943 218.38 61.6734 218.204 61.482C218.029 61.2867 217.79 61.1891 217.49 61.1891C217.103 61.1891 216.802 61.3043 216.587 61.5348C216.376 61.7652 216.271 62.0914 216.271 62.5133V63.2867C216.271 63.7008 216.386 64.0211 216.617 64.2477C216.851 64.4742 217.177 64.5875 217.595 64.5875C217.81 64.5875 218.023 64.5504 218.234 64.4762C218.445 64.398 218.636 64.2887 218.808 64.148L219.857 65.0797C219.54 65.3687 219.185 65.5934 218.79 65.7535C218.396 65.9098 217.997 65.9879 217.595 65.9879ZM228.511 65.9V62.3902C228.511 62.0348 228.425 61.7613 228.253 61.5699C228.085 61.3746 227.845 61.2769 227.533 61.2769C227.224 61.2769 226.986 61.3707 226.818 61.5582C226.654 61.7418 226.572 62.0035 226.572 62.3434L226.273 60.9371C226.464 60.5504 226.714 60.2535 227.023 60.0465C227.331 59.8355 227.671 59.7301 228.042 59.7301C228.702 59.7301 229.212 59.9625 229.572 60.4273C229.935 60.8883 230.117 61.5406 230.117 62.3844V65.9H228.511ZM221.421 65.9V59.818H223.027V65.9H221.421ZM224.966 65.9V62.3902C224.966 62.0348 224.878 61.7613 224.702 61.5699C224.531 61.3746 224.283 61.2769 223.958 61.2769C223.661 61.2769 223.431 61.3609 223.267 61.5289C223.107 61.693 223.027 61.9254 223.027 62.2262L222.904 60.8785C223.079 60.5113 223.3 60.2281 223.566 60.0289C223.835 59.8297 224.156 59.7301 224.527 59.7301C225.179 59.7301 225.683 59.9625 226.038 60.4273C226.394 60.8883 226.572 61.5406 226.572 62.3844V65.9H224.966Z" fill="#FCFCFC"/>
</g>
</svg>
